<?xml version="1.0" encoding="utf-8"?>
<!-- Generator: Adobe Illustrator 23.0.1, SVG Export Plug-In . SVG Version: 6.00 Build 0)  -->
<svg version="1.1" id="Layer_1" xmlns="http://www.w3.org/2000/svg" xmlns:xlink="http://www.w3.org/1999/xlink" x="0px" y="0px"
	 viewBox="0 0 39.2 33.2" style="enable-background:new 0 0 39.2 33.2;" xml:space="preserve">
<style type="text/css">
	.st0{enable-background:new    ;}
	.st1{fill:#444444;}
	.st2{fill:#FFD10D;}
</style>
<title>blackAsset 1</title>
<g>
	<g id="Layer_1-2">
		<g class="st0">
			<path class="st1" d="M9.1,29.6c1.9,0,3.5-0.8,4.7-2.3l2.5,2.6c-2,2.3-4.4,3.4-7.1,3.4s-4.9-0.9-6.7-2.6C0.9,28.9,0,26.8,0,24.2
				s0.9-4.8,2.7-6.5s4-2.6,6.6-2.6c2.9,0,5.3,1.1,7.3,3.3l-2.4,2.8c-1.2-1.5-2.8-2.3-4.6-2.3c-1.5,0-2.7,0.5-3.8,1.4
				c-1,1-1.6,2.3-1.6,3.9s0.5,3,1.5,3.9C6.5,29.1,7.7,29.6,9.1,29.6z"/>
			<path class="st1" d="M35.3,21.9l-4.8,9.6h-2.3l-4.7-9.6V33h-3.9V15.4h5.3l4.5,9.7l4.6-9.7h5.3V33h-3.9V21.9z"/>
		</g>
		<path class="st2" d="M7.4,11.2c-1.6-0.5-3.1-0.9-4.6-1.4c-0.3-0.2-0.5-0.6-0.5-1c0.9-6.6,6.5-9.9,11.8-8.4
			c2.5,0.9,4.9,1.9,7.3,3.1c1.6,0.7,3.2,1.3,4.9,1.8c3.2,0.7,5.1-0.6,6-3.7c0.1-0.2,0.1-0.4,0.3-0.7c1.5,0.4,3,0.8,4.5,1.2
			c0.2,0.1,0.3,0.6,0.3,0.9c-0.5,4.9-3.6,8-8.5,8.3c-1.5,0-3.1-0.3-4.5-0.9c-2.6-1-5.2-2.3-7.7-3.5C16,6.4,15.3,6.2,14.6,6
			c-2.5-0.7-5.2,0.5-6.2,3C8,9.7,7.8,10.4,7.4,11.2z"/>
	</g>
</g>
</svg>
